<svg xmlns="http://www.w3.org/2000/svg" width="149" height="162" fill="none" viewBox="0 0 149 162"><path stroke="#997D00" stroke-width="2.799" d="M103.712 197.478s52.843-38.509-53.147-47.372"/><path stroke="#484C99" stroke-width="2.799" d="M55.914 42.86c-57.712 2.444-108.25 97.476-2.26 106.339M69.258 38.473C99.64 30.633 155 3.5 103.5-4"/><path stroke="#DDBB1A" stroke-linecap="round" stroke-linejoin="round" stroke-width="2.799" d="m73.595 134.165-5.161 28.726a4.864 4.864 0 0 1-5.648 3.928l-28.727-5.162a4.864 4.864 0 0 1-3.928-5.648l5.162-28.727a4.864 4.864 0 0 1 5.648-3.927l28.727 5.161a4.865 4.865 0 0 1 3.927 5.649Z"/><path stroke="#DDBB1A" stroke-linecap="round" stroke-linejoin="round" stroke-width="2.799" d="m34.059 161.657 27.13 4.875-.286 1.596a5.171 5.171 0 0 1-.182.692l-.087.256a3.396 3.396 0 0 1-.19.411l-.017.096-.19.328-.185.247-.09.132-.245.269-.064.079-.189.181-.158.144-.161.119a4.821 4.821 0 0 1-3.89.974l-28.727-5.162a4.878 4.878 0 0 1-3.15-2.041l7.53-5.236a4.856 4.856 0 0 0 3.15 2.04ZM31.042 128.751c.148-.048.298-.087.45-.117l.055.01c.137-.025.265-.052.408-.067.04.004.08.011.12.021.111.021.234-.023.35-.027.076.009.15.023.224.04.088.016.167.03.255.005.163.021.325.05.486.087l1.596.287-4.855 27.019a4.865 4.865 0 0 0 .777 3.608l-7.53 5.236a4.863 4.863 0 0 1-.777-3.607l5.161-28.727a4.866 4.866 0 0 1 2.04-3.151 5.08 5.08 0 0 1 1.237-.601l.003-.016Z"/><path stroke="#DDBB1A" stroke-linecap="round" stroke-linejoin="round" stroke-width="2.799" d="m62.935 133.896-29.525-5.304a4.863 4.863 0 0 0-3.607.777l7.598-5.291a4.87 4.87 0 0 1 3.54-.723l28.727 5.162c3.99.717-.35 6.527-6.733 5.379Z"/><path stroke="#DDBB1A" stroke-linecap="round" stroke-linejoin="round" stroke-width="2.799" d="M73.595 134.165c-.915 4.777-5.161 28.727-5.161 28.727a4.81 4.81 0 0 1-2.013 3.131l-7.53 5.236a4.806 4.806 0 0 0 2.012-3.131l5.305-29.525c1.147-6.383 8.248-9.226 7.387-4.438Z"/><rect width="38.918" height="38.918" fill="#FAE166" stroke="#DDBB1A" stroke-width="2.799" rx="5.599" transform="scale(1 -1) rotate(79.814 133.4 -50.56)"/><rect width="3.073" height="3.012" fill="#DDBB1A" rx=".7" transform="matrix(-.571 -.821 -.821 .571 67.951 135.654)"/><rect width="1.621" height="3.243" fill="#DDBB1A" rx=".7" transform="matrix(-.571 -.821 -.821 .571 35.667 127.491)"/><rect width="1.621" height="1.793" fill="#DDBB1A" rx=".7" transform="matrix(-.571 -.821 -.821 .571 72.876 131.293)"/><path stroke="#6E72E0" stroke-linecap="round" stroke-linejoin="round" stroke-width="2.799" d="m77.366 14.145 8.49 27.925a4.864 4.864 0 0 1-3.238 6.069l-27.925 8.49a4.865 4.865 0 0 1-6.07-3.239l-8.49-27.924a4.864 4.864 0 0 1 3.24-6.07l27.924-8.49a4.865 4.865 0 0 1 6.07 3.24Z"/><path stroke="#6E72E0" stroke-linecap="round" stroke-linejoin="round" stroke-width="2.799" d="m54.693 56.63 26.373-8.02.472 1.552a5.2 5.2 0 0 1 .153.699l.04.268c.015.15.022.3.018.452l.028.093-.02.379-.052.303-.02.159-.096.351-.02.1-.087.246-.074.2-.09.18a4.815 4.815 0 0 1-3.02 2.638l-27.924 8.491a4.865 4.865 0 0 1-3.734-.381l4.319-8.092a4.866 4.866 0 0 0 3.734.381ZM37.018 28.71c.11-.11.225-.213.347-.31l.054-.016c.11-.084.212-.166.333-.245a.673.673 0 0 1 .116-.036c.108-.033.198-.128.3-.184.07-.026.143-.048.217-.066a.53.53 0 0 0 .229-.112 4.94 4.94 0 0 1 .473-.144l1.551-.471 7.986 26.264a4.864 4.864 0 0 0 2.335 2.858l-4.32 8.092a4.864 4.864 0 0 1-2.334-2.858l-8.49-27.924a4.866 4.866 0 0 1 .381-3.735c.224-.402.503-.771.827-1.098l-.005-.016Z"/><path stroke="#6E72E0" stroke-linecap="round" stroke-linejoin="round" stroke-width="2.799" d="m67.754 18.762-28.7 8.727a4.865 4.865 0 0 0-2.858 2.335l4.354-8.171a4.865 4.865 0 0 1 2.822-2.256l27.925-8.49c3.879-1.18 2.662 5.968-3.543 7.855Z"/><path stroke="#6E72E0" stroke-linecap="round" stroke-linejoin="round" stroke-width="2.799" d="M77.366 14.145c1.362 4.67 8.49 27.925 8.49 27.925a4.816 4.816 0 0 1-.364 3.704l-4.32 8.092a4.817 4.817 0 0 0 .366-3.704l-8.726-28.7c-1.887-6.206 3.14-11.97 4.554-7.317Z"/><rect width="38.918" height="38.918" fill="#8287EB" stroke="#6E72E0" stroke-width="2.799" rx="5.599" transform="scale(-1 1) rotate(-73.088 -4.498 83.371)"/><rect width="1.621" height="3.243" fill="#6E72E0" rx=".7" transform="matrix(-.8822 -.4708 -.4708 .8822 84.062 48.371)"/><rect width="3.073" height="3.012" fill="#6E72E0" rx=".7" transform="matrix(-.8822 -.4708 -.4708 .8822 73.02 18.042)"/><rect width="1.621" height="3.243" fill="#6E72E0" rx=".7" transform="matrix(-.8822 -.4708 -.4708 .8822 40.562 25.48)"/><rect width="1.621" height="1.793" fill="#6E72E0" rx=".7" transform="matrix(-.8822 -.4708 -.4708 .8822 75.418 11.917)"/><path stroke="#484C99" stroke-width=".35" d="M88.94 52.813 75.834 9.709 32.73 22.814l13.106 43.104z"/></svg>